<svg xmlns="http://www.w3.org/2000/svg" version="1.1" xmlnsXlink="http://www.w3.org/1999/xlink" xmlnsSvgjs="http://svgjs.dev/svgjs" width="2000" height="348" viewBox="0 0 2000 348"><g transform="matrix(1,0,0,1,-1.2121212121212466,-2.4042890022743393)"><svg viewBox="0 0 396 69" data-background-color="#ffffff" preserveAspectRatio="xMidYMid meet" height="348" width="2000" xmlns="http://www.w3.org/2000/svg" xmlnsXlink="http://www.w3.org/1999/xlink"><g id="tight-bounds" transform="matrix(1,0,0,1,0.2400000000000091,0.47671247458887933)"><svg viewBox="0 0 395.52 68.04657505082226" height="68.04657505082226" width="395.52"><g><svg viewBox="0 0 512.3620313755797 88.1484663763909" height="68.04657505082226" width="395.52"><g transform="matrix(1,0,0,1,116.84203137557975,12.182602805999032)"><svg viewBox="0 0 395.52 63.783260764392836" height="63.783260764392836" width="395.52"><g id="textblocktransform"><svg viewBox="0 0 395.52 63.783260764392836" height="63.783260764392836" width="395.52" id="textblock"><g><svg viewBox="0 0 395.52 63.783260764392836" height="63.783260764392836" width="395.52"><g transform="matrix(1,0,0,1,0,0)"><svg width="395.52" viewBox="3.25 -39 310.02 50" height="63.783260764392836" data-palette-color="#43423f"><path d="M28.75-5.8L11.55-13.2 28.75-20.2 28.75-25.55 3.25-14.7 3.25-11.3 28.75-0.45 28.75-5.8ZM32.4-35L32.4-29.55 41.65-29.55 41.65 0 47.55 0 47.55-29.55 56.8-29.55 56.8-35 32.4-35ZM60.45-32.15L60.45-32.15Q60.45-30.8 61.47-29.83 62.5-28.85 63.85-28.85L63.85-28.85Q65.3-28.85 66.3-29.83 67.3-30.8 67.3-32.15L67.3-32.15Q67.3-33.55 66.3-34.5 65.3-35.45 63.85-35.45L63.85-35.45Q62.5-35.45 61.47-34.5 60.45-33.55 60.45-32.15ZM66.55-23L61.2-23 61.2 0 66.55 0 66.55-23ZM96.74-39L91.29-39 91.29 0 96.74 0 96.74-39ZM72.24-11.5L72.24-11.5Q72.24-7.75 73.79-5.05 75.34-2.35 77.92-0.93 80.49 0.5 83.44 0.5L83.44 0.5Q86.34 0.5 88.52-0.95 90.69-2.4 91.97-5.1 93.24-7.8 93.24-11.5L93.24-11.5Q93.24-15.25 91.97-17.93 90.69-20.6 88.52-22.05 86.34-23.5 83.44-23.5L83.44-23.5Q80.49-23.5 77.92-22.08 75.34-20.65 73.79-17.98 72.24-15.3 72.24-11.5ZM77.84-11.5L77.84-11.5Q77.84-13.8 78.79-15.45 79.74-17.1 81.32-17.95 82.89-18.8 84.74-18.8L84.74-18.8Q86.34-18.8 87.84-17.95 89.34-17.1 90.32-15.48 91.29-13.85 91.29-11.5L91.29-11.5Q91.29-9.15 90.32-7.53 89.34-5.9 87.84-5.05 86.34-4.2 84.74-4.2L84.74-4.2Q82.89-4.2 81.32-5.05 79.74-5.9 78.79-7.55 77.84-9.2 77.84-11.5ZM126.19-39L120.74-39 120.74 0 126.19 0 126.19-39ZM101.69-11.5L101.69-11.5Q101.69-7.75 103.24-5.05 104.79-2.35 107.37-0.93 109.94 0.5 112.89 0.5L112.89 0.5Q115.79 0.5 117.97-0.95 120.14-2.4 121.42-5.1 122.69-7.8 122.69-11.5L122.69-11.5Q122.69-15.25 121.42-17.93 120.14-20.6 117.97-22.05 115.79-23.5 112.89-23.5L112.89-23.5Q109.94-23.5 107.37-22.08 104.79-20.65 103.24-17.98 101.69-15.3 101.69-11.5ZM107.29-11.5L107.29-11.5Q107.29-13.8 108.24-15.45 109.19-17.1 110.77-17.95 112.34-18.8 114.19-18.8L114.19-18.8Q115.79-18.8 117.29-17.95 118.79-17.1 119.77-15.48 120.74-13.85 120.74-11.5L120.74-11.5Q120.74-9.15 119.77-7.53 118.79-5.9 117.29-5.05 115.79-4.2 114.19-4.2L114.19-4.2Q112.34-4.2 110.77-5.05 109.19-5.9 108.24-7.55 107.29-9.2 107.29-11.5ZM132.69-32.15L132.69-32.15Q132.69-30.8 133.71-29.83 134.74-28.85 136.09-28.85L136.09-28.85Q137.54-28.85 138.54-29.83 139.54-30.8 139.54-32.15L139.54-32.15Q139.54-33.55 138.54-34.5 137.54-35.45 136.09-35.45L136.09-35.45Q134.74-35.45 133.71-34.5 132.69-33.55 132.69-32.15ZM138.79-23L133.44-23 133.44 0 138.79 0 138.79-23ZM151.69-39L146.24-39 146.24 0 151.69 0 151.69-39ZM163.88 11L178.88-23 173.08-23 165.88-4.95 168.43-4.8 161.08-23 154.88-23 164.18-2.7 158.13 11 163.88 11ZM187.13-20.95L187.13-18.05 193.18-18.05Q196.53-18.05 199.03-19 201.53-19.95 202.96-21.78 204.38-23.6 204.38-26.2L204.38-26.2Q204.38-29.2 202.96-31.15 201.53-33.1 199.03-34.05 196.53-35 193.18-35L193.18-35 182.63-35 182.63 0 193.78 0Q197.53 0 200.36-1.07 203.18-2.15 204.78-4.4 206.38-6.65 206.38-10.1L206.38-10.1Q206.38-12.6 205.38-14.4 204.38-16.2 202.63-17.35 200.88-18.5 198.61-19.07 196.33-19.65 193.78-19.65L193.78-19.65 187.13-19.65 187.13-16.35 193.43-16.35Q194.93-16.35 196.18-16.03 197.43-15.7 198.38-14.98 199.33-14.25 199.83-13.2 200.33-12.15 200.33-10.7L200.33-10.7Q200.33-8.75 199.43-7.48 198.53-6.2 196.98-5.55 195.43-4.9 193.43-4.9L193.43-4.9 188.53-4.9 188.53-30.15 192.78-30.15Q195.28-30.15 196.81-28.95 198.33-27.75 198.33-25.55L198.33-25.55Q198.33-24.1 197.63-23.08 196.93-22.05 195.68-21.5 194.43-20.95 192.78-20.95L192.78-20.95 187.13-20.95ZM212.03-32.15L212.03-32.15Q212.03-30.8 213.05-29.83 214.08-28.85 215.43-28.85L215.43-28.85Q216.88-28.85 217.88-29.83 218.88-30.8 218.88-32.15L218.88-32.15Q218.88-33.55 217.88-34.5 216.88-35.45 215.43-35.45L215.43-35.45Q214.08-35.45 213.05-34.5 212.03-33.55 212.03-32.15ZM218.13-23L212.78-23 212.78 0 218.13 0 218.13-23ZM235.43-23L222.38-23 222.38-18.25 235.43-18.25 235.43-23ZM231.58-31L226.28-31 226.28 0 231.58 0 231.58-31ZM240.17-7.6L240.17-7.6 237.02-4.4Q238.02-3.1 239.52-1.93 241.02-0.75 242.97-0.03 244.92 0.7 247.32 0.7L247.32 0.7Q251.07 0.7 253.3-1.28 255.52-3.25 255.52-6.5L255.52-6.5Q255.52-8.6 254.57-9.9 253.62-11.2 252.02-12.1 250.42-13 248.47-13.75L248.47-13.75Q247.07-14.3 245.95-14.8 244.82-15.3 244.15-15.93 243.47-16.55 243.47-17.35L243.47-17.35Q243.47-18.3 244.22-18.8 244.97-19.3 246.17-19.3L246.17-19.3Q247.87-19.3 249.47-18.45 251.07-17.6 252.17-16.25L252.17-16.25 255.17-19.45Q254.22-20.6 252.87-21.5 251.52-22.4 249.85-22.95 248.17-23.5 246.27-23.5L246.27-23.5Q244.17-23.5 242.35-22.83 240.52-22.15 239.45-20.75 238.37-19.35 238.37-17.25L238.37-17.25Q238.37-15.2 239.35-13.85 240.32-12.5 241.85-11.68 243.37-10.85 244.92-10.25L244.92-10.25Q246.47-9.7 247.62-9.18 248.77-8.65 249.42-7.93 250.07-7.2 250.07-6.2L250.07-6.2Q250.07-5.05 249.25-4.4 248.42-3.75 246.97-3.75L246.97-3.75Q245.82-3.75 244.67-4.2 243.52-4.65 242.42-5.5 241.32-6.35 240.17-7.6ZM283.77-35L278.42-35 257.62 7.5 263.07 7.5 283.77-35ZM287.77-20.2L305.02-12.8 287.77-5.8 287.77-0.45 313.27-11.3 313.27-14.7 287.77-25.55 287.77-20.2Z" opacity="1" transform="matrix(1,0,0,1,0,0)" fill="#ffffff" class="wordmark-text-0" data-fill-palette-color="primary" id="text-0"></path></svg></g></svg></g></svg></g></svg></g><g><svg viewBox="0 0 101.78433430736494 88.1484663763909" height="88.1484663763909" width="101.78433430736494"><g><svg xmlns="http://www.w3.org/2000/svg" xmlnsXlink="http://www.w3.org/1999/xlink" version="1.1" x="0" y="0" viewBox="10.046 15.399 79.90700000000001 69.202" enable-background="new 0 0 100 100" xmlSpace="preserve" height="88.1484663763909" width="101.78433430736494" class="icon-icon-0" data-fill-palette-color="accent" id="icon-0"><g fill="#608c56" data-fill-palette-color="accent"><path d="M70.947 51.604C70.947 49.104 68.913 47.071 66.413 47.071S61.879 49.104 61.879 51.604 63.914 56.138 66.413 56.138A4.54 4.54 0 0 0 70.947 51.604" fill="#ffffff" data-fill-palette-color="accent"></path><path d="M89.953 50.001L75.849 25.57V26.104H66.059L57.625 34.537A7.7 7.7 0 0 1 58.727 38.495C58.727 42.759 55.258 46.229 50.993 46.229 46.729 46.229 43.259 42.758 43.259 38.495 43.259 34.23 46.729 30.761 50.993 30.761 52.654 30.761 54.19 31.292 55.451 32.187L64.733 22.905H74.308L69.976 15.4H44.934V28.884L30.046 43.771A7.7 7.7 0 0 1 31.059 47.584C31.059 51.849 27.589 55.317 23.325 55.317 19.06 55.317 15.591 51.848 15.591 47.584S19.06 39.85 23.325 39.85C25.045 39.85 26.631 40.421 27.917 41.375L41.733 27.559V15.399H30.023L10.046 50.001 20.639 68.347 38.982 50.005H58.848C59.588 46.506 62.698 43.87 66.413 43.87 70.678 43.87 74.146 47.341 74.146 51.604 74.146 55.869 70.677 59.338 66.413 59.338 62.697 59.338 59.588 56.703 58.848 53.204H40.307L22.296 71.217 30.024 84.601H44.179V78.001C40.68 77.263 38.045 74.151 38.045 70.437 38.045 66.171 41.514 62.703 45.779 62.703 49.495 62.703 52.605 65.338 53.344 68.837H78.891V69.162z" fill="#ffffff" data-fill-palette-color="accent"></path><path d="M18.792 47.584A4.54 4.54 0 0 0 23.326 52.118 4.54 4.54 0 0 0 27.86 47.584 4.54 4.54 0 0 0 23.326 43.05 4.54 4.54 0 0 0 18.792 47.584" fill="#ffffff" data-fill-palette-color="accent"></path><path d="M50.312 70.437C50.312 67.937 48.278 65.903 45.778 65.903S41.244 67.937 41.244 70.437 43.278 74.97 45.778 74.97 50.312 72.936 50.312 70.437" fill="#ffffff" data-fill-palette-color="accent"></path><path d="M50.993 33.961A4.54 4.54 0 0 0 46.459 38.495C46.459 40.994 48.493 43.028 50.993 43.028S55.527 40.994 55.527 38.495A4.54 4.54 0 0 0 50.993 33.961" fill="#ffffff" data-fill-palette-color="accent"></path><path d="M47.378 78.001V84.601H69.976L77.231 72.037H53.344A7.75 7.75 0 0 1 47.378 78.001" fill="#ffffff" data-fill-palette-color="accent"></path></g></svg></g></svg></g></svg></g><defs></defs></svg><rect width="395.52" height="68.04657505082226" fill="none" stroke="none" visibility="hidden"></rect></g></svg></g></svg>